<?xml version="1.0" encoding="utf-8"?>
<!-- Generator: Adobe Illustrator 16.0.4, SVG Export Plug-In . SVG Version: 6.00 Build 0)  -->
<!DOCTYPE svg PUBLIC "-//W3C//DTD SVG 1.1//EN" "http://www.w3.org/Graphics/SVG/1.1/DTD/svg11.dtd">
<svg version="1.1" id="Layer_1" xmlns="http://www.w3.org/2000/svg" xmlns:xlink="http://www.w3.org/1999/xlink" x="0px" y="0px"
	 width="1280px" height="800px" viewBox="0 0 1280 800" enable-background="new 0 0 1280 800" xml:space="preserve">
<rect x="275" y="50" fill="#CC0000" width="694" height="694"/>
<g>
	<g>
		<path fill="#FFFFFF" stroke="#FFFFFF" stroke-width="20" stroke-miterlimit="10" d="M644.488,603.201
			c-113.697,0-206.196-92.499-206.196-206.196c0-113.699,92.5-206.198,206.196-206.198c62.801,0,121.412,28.106,160.804,77.113
			l-2.215,1.783c-38.852-48.332-96.655-76.052-158.589-76.052c-112.129,0-203.353,91.224-203.353,203.354
			c0,112.126,91.224,203.352,203.353,203.352c62.239,0,120.219-27.942,159.066-76.654l2.228,1.771
			C766.387,574.871,707.601,603.201,644.488,603.201L644.488,603.201z"/>
	</g>
	<g>
		<path fill="#FFFFFF" stroke="#FFFFFF" stroke-width="20" stroke-miterlimit="10" d="M644.488,240.579v-48.35
			c-113.095,0-204.774,91.681-204.774,204.776c0,113.091,91.68,204.774,204.774,204.774v-48.35
			c-86.253,0-156.425-70.174-156.425-156.424C488.063,310.75,558.235,240.579,644.488,240.579z"/>
	</g>
</g>
</svg>
