<?xml version="1.0" encoding="utf-8"?>
<!-- Generator: Adobe Illustrator 16.0.4, SVG Export Plug-In . SVG Version: 6.00 Build 0)  -->
<!DOCTYPE svg PUBLIC "-//W3C//DTD SVG 1.1//EN" "http://www.w3.org/Graphics/SVG/1.1/DTD/svg11.dtd">
<svg version="1.1" id="Layer_1" xmlns="http://www.w3.org/2000/svg" xmlns:xlink="http://www.w3.org/1999/xlink" x="0px" y="0px"
	 width="880px" height="660px" viewBox="0 0 880 660" enable-background="new 0 0 880 660" xml:space="preserve">
<g>
	<rect x="610" y="490" fill="#A0A5AA" width="100" height="20"/>
	<rect x="610" y="515" fill="#A0A5AA" width="50" height="90"/>
	<rect x="665" y="515" fill="#A0A5AA" width="20" height="90"/>
	<rect x="690" y="515" fill="#A0A5AA" width="20" height="90"/>
</g>
<g>
	<rect x="470" y="490" fill="#A0A5AA" width="100" height="20"/>
	<rect x="495" y="515" fill="#A0A5AA" width="50" height="90"/>
	<rect x="470" y="515" fill="#A0A5AA" width="20" height="90"/>
	<rect x="550" y="515" fill="#A0A5AA" width="20" height="90"/>
</g>
<g>
	<rect x="320" y="490" fill="#A0A5AA" width="100" height="20"/>
	<rect x="370" y="515" fill="#A0A5AA" width="50" height="90"/>
	<rect x="320" y="515" fill="#A0A5AA" width="20" height="90"/>
	<rect x="345" y="515" fill="#A0A5AA" width="20" height="90"/>
</g>
<g>
	<rect x="610" y="350" fill="#A0A5AA" width="100" height="20"/>
	<rect x="610" y="375" fill="#A0A5AA" width="75" height="90"/>
	<rect x="690" y="375" fill="#A0A5AA" width="20" height="90"/>
</g>
<g>
	<rect x="470" y="350" fill="#A0A5AA" width="100" height="20"/>
	<rect x="495" y="375" fill="#A0A5AA" width="75" height="90"/>
	<rect x="470" y="375" fill="#A0A5AA" width="20" height="90"/>
</g>
<g>
	<rect x="320" y="350" fill="#A0A5AA" width="100" height="20"/>
	<rect x="320" y="375" fill="#A0A5AA" width="100" height="90"/>
</g>
</svg>
